<svg xmlns="http://www.w3.org/2000/svg" width="39" height="40" fill="none"><path stroke="#8984A3" stroke-linecap="round" stroke-linejoin="round" stroke-width="1.5" d="M24.375 35.6H15.6V25.583c0-.925.71-1.683 1.578-1.683h5.619c.868 0 1.578.758 1.578 1.684V35.6Z"/><path stroke="#8984A3" stroke-linecap="round" stroke-linejoin="round" stroke-width="1.5" d="M35.1 19.495v10.96c0 2.842-2.19 5.145-4.901 5.145H9.776c-2.712 0-4.901-2.303-4.901-5.145v-10.96c0-1.535.637-2.972 1.764-3.952l10.212-8.967a4.699 4.699 0 0 1 6.273 0l10.212 8.967c1.127.98 1.764 2.417 1.764 3.952Z"/></svg>