<svg xmlns="http://www.w3.org/2000/svg" width="64" height="70" fill="none"><path fill="#C74804" d="M25.562 26.198a1.094 1.094 0 0 1 1.094-1.094H43.95a1.094 1.094 0 1 1 0 2.187H26.656a1.094 1.094 0 0 1-1.094-1.093Zm1.094-5.017H43.95a1.093 1.093 0 1 0 0-2.187H26.656a1.094 1.094 0 0 0 0 2.187Zm-13.192 1.13a1.094 1.094 0 1 0-1.547 1.547l2.49 2.49a1.092 1.092 0 0 0 1.508.036l6.046-5.486a1.095 1.095 0 0 0-.682-1.903 1.094 1.094 0 0 0-.788.283l-5.274 4.786-1.753-1.752ZM28.501 3.965a1.367 1.367 0 1 0 0 2.734 1.367 1.367 0 0 0 0-2.734Zm-8.01 25.704-5.274 4.787-1.753-1.753a1.095 1.095 0 0 0-1.789.352 1.094 1.094 0 0 0 .242 1.195l2.49 2.49a1.09 1.09 0 0 0 1.508.036l6.046-5.487a1.095 1.095 0 0 0-1.47-1.62Zm0 10.39-5.274 4.788-1.753-1.753a1.094 1.094 0 1 0-1.547 1.547l2.49 2.49a1.092 1.092 0 0 0 1.508.036l6.046-5.487a1.094 1.094 0 1 0-1.47-1.62Zm0 10.392-5.274 4.786-1.753-1.752a1.094 1.094 0 0 0-1.547 1.547l2.49 2.489a1.092 1.092 0 0 0 1.508.036l6.046-5.486a1.095 1.095 0 0 0-1.47-1.62ZM26.656 33.4H43.95a1.094 1.094 0 0 0 0-2.187H26.656a1.094 1.094 0 0 0 0 2.187Zm36.387 8.487v19.81a3.883 3.883 0 0 1-1.16 2.801l-4.34 4.341A3.884 3.884 0 0 1 54.741 70H5.09a4.139 4.139 0 0 1-4.134-4.134V9.924A4.139 4.139 0 0 1 5.091 5.79h10.611v-.744a1.094 1.094 0 0 1 1.094-1.094h5.882A6.242 6.242 0 0 1 28.501 0a6.242 6.242 0 0 1 5.823 3.952h5.883A1.094 1.094 0 0 1 41.3 5.046v.744h10.612a4.139 4.139 0 0 1 4.134 4.134v25.613h.793c.998 0 1.81.812 1.81 1.81v.58h.433a3.965 3.965 0 0 1 3.96 3.961Zm-6.204 1.617h-1.421c-.998 0-1.81-.813-1.81-1.81v-1.58H50.68v1.58c0 .998-.812 1.81-1.81 1.81h-1.422c-.998 0-1.81-.813-1.81-1.81v-1.58h-2.927v1.58c0 .998-.812 1.81-1.81 1.81H39.48c-.998 0-1.81-.813-1.81-1.81v-1.58h-2.927v1.58c0 .998-.812 1.81-1.81 1.81h-1.422c-.998 0-1.81-.813-1.81-1.81v-1.58h-.433c-.978 0-1.773.795-1.773 1.773v2.296h33.36v-2.296c0-.977-.796-1.773-1.774-1.773h-.433v1.58c0 .998-.812 1.81-1.81 1.81Zm-24.283-2.188v-3.593h-.667v3.593h.667Zm7.969 0v-3.593h-.667v3.593h.667Zm7.968 0v-3.593h-.667v3.593h.667Zm7.969-3.593h-.667v3.593h.667v-3.593ZM41.3 7.978v2.042h9.422a1.094 1.094 0 0 1 1.094 1.093v26.815h1.791v-.581c0-.334.093-.646.251-.915V9.924a1.949 1.949 0 0 0-1.946-1.946H41.3Zm-23.41 3.88h21.223V6.14h-5.587a1.094 1.094 0 0 1-1.064-.837 4.06 4.06 0 0 0-3.96-3.115 4.061 4.061 0 0 0-3.962 3.115 1.094 1.094 0 0 1-1.063.837H17.89v5.717Zm-1.094 2.187a1.094 1.094 0 0 1-1.094-1.094v-.744H7.374v51.376h17.934V41.888a3.965 3.965 0 0 1 3.96-3.96h.434v-.581c0-.998.812-1.81 1.81-1.81h1.422c.998 0 1.81.812 1.81 1.81v.58h2.926v-.58c0-.998.813-1.81 1.81-1.81h1.422c.998 0 1.81.812 1.81 1.81v.58h2.927v-.58c0-.998.812-1.81 1.81-1.81h1.421c.271 0 .528.061.759.168V12.207H41.3v.744a1.094 1.094 0 0 1-1.093 1.094h-23.41ZM5.091 67.812h20.638a3.935 3.935 0 0 1-.42-1.772v-.27H6.28a1.094 1.094 0 0 1-1.094-1.093V11.113A1.094 1.094 0 0 1 6.28 10.02h9.422V7.978H5.091a1.949 1.949 0 0 0-1.946 1.946v55.942c0 1.073.873 1.947 1.946 1.947Zm49.65 0c.033 0 .063-.002.094-.004v-4.205c0-.998.812-1.81 1.81-1.81h4.206c.002-.032.004-.062.004-.094V46.37h-33.36V66.04c0 .977.796 1.772 1.774 1.772h25.473Zm4.567-3.832h-2.285v2.286l2.285-2.286Zm-1.695-3.096h-4.281v4.28a1.094 1.094 0 0 1-1.094 1.095h-21.5a1.093 1.093 0 0 1-1.094-1.094V49.04a1.094 1.094 0 0 1 1.094-1.094h26.875a1.094 1.094 0 0 1 1.094 1.094v10.75a1.093 1.093 0 0 1-1.094 1.094Zm-1.094-10.75h-3.187v3.187h3.187v-3.187Zm-5.375 5.375h-3.187v3.187h3.187V55.51Zm-13.937 3.187h3.187V55.51h-3.187v3.187Zm-2.188-3.187h-3.187v3.187h3.187V55.51Zm5.375-5.375h-3.187v3.187h3.187v-3.187Zm2.188 3.187h3.187v-3.187h-3.187v3.187Zm-5.375 7.563v3.187h3.187v-3.187h-3.187Zm5.375 3.187h3.187v-3.187h-3.187v3.187Zm3.187-5.375V55.51h-3.187v3.187h3.187Zm5.375-5.375v-3.187h-3.187v3.187h3.187Zm-19.312-3.187v3.187h3.187v-3.187h-3.187Zm0 13.937h3.187v-3.187h-3.187v3.187Zm19.312 0v-3.187h-3.187v3.187h3.187Zm5.375-5.375V55.51h-3.187v3.187h3.187Z"/></svg>