<svg xmlns="http://www.w3.org/2000/svg" width="39" height="40" fill="none"><path stroke="#8984A3" stroke-linecap="round" stroke-linejoin="round" stroke-width="1.5" d="M11.148 8.316V4.97M27.852 8.316V4.97M29.331 6.643H9.67a5.194 5.194 0 0 0-5.2 5.2v18.005c0 2.876 2.324 5.2 5.2 5.2h19.678c2.877 0 5.2-2.324 5.2-5.2V11.841a5.219 5.219 0 0 0-5.216-5.2ZM4.469 13.338H34.53"/><path fill="#8984A3" d="M29.25 20a1.625 1.625 0 1 0 0-3.25 1.625 1.625 0 0 0 0 3.25ZM22.75 20a1.625 1.625 0 1 0 0-3.25 1.625 1.625 0 0 0 0 3.25ZM16.25 20a1.625 1.625 0 1 0 0-3.25 1.625 1.625 0 0 0 0 3.25ZM9.75 20a1.625 1.625 0 1 0 0-3.25 1.625 1.625 0 0 0 0 3.25ZM29.25 25.671a1.625 1.625 0 1 0 0-3.25 1.625 1.625 0 0 0 0 3.25ZM22.75 25.671a1.625 1.625 0 1 0 0-3.25 1.625 1.625 0 0 0 0 3.25ZM16.25 25.671a1.625 1.625 0 1 0 0-3.25 1.625 1.625 0 0 0 0 3.25ZM9.75 25.671a1.625 1.625 0 1 0 0-3.25 1.625 1.625 0 0 0 0 3.25ZM22.75 31.326a1.625 1.625 0 1 0 0-3.25 1.625 1.625 0 0 0 0 3.25ZM16.25 31.326a1.625 1.625 0 1 0 0-3.25 1.625 1.625 0 0 0 0 3.25ZM9.75 31.326a1.625 1.625 0 1 0 0-3.25 1.625 1.625 0 0 0 0 3.25Z"/></svg>