<svg xmlns="http://www.w3.org/2000/svg" width="39" height="40" fill="none"><path stroke="#8984A3" stroke-linecap="round" stroke-linejoin="round" stroke-width="1.5" d="M14.105 17.335h-5.46a2.725 2.725 0 0 1-2.73-2.73v-5.46a2.726 2.726 0 0 1 2.73-2.73h5.46a2.725 2.725 0 0 1 2.73 2.73v5.46a2.725 2.725 0 0 1-2.73 2.73ZM30.355 17.335h-5.46a2.726 2.726 0 0 1-2.73-2.73v-5.46a2.726 2.726 0 0 1 2.73-2.73h5.46a2.725 2.725 0 0 1 2.73 2.73v5.46a2.725 2.725 0 0 1-2.73 2.73ZM14.105 33.585h-5.46a2.725 2.725 0 0 1-2.73-2.73v-5.46a2.726 2.726 0 0 1 2.73-2.73h5.46a2.726 2.726 0 0 1 2.73 2.73v5.46a2.725 2.725 0 0 1-2.73 2.73ZM30.355 33.585h-5.46a2.726 2.726 0 0 1-2.73-2.73v-5.46a2.726 2.726 0 0 1 2.73-2.73h5.46a2.726 2.726 0 0 1 2.73 2.73v5.46a2.725 2.725 0 0 1-2.73 2.73Z"/></svg>