<svg xmlns="http://www.w3.org/2000/svg" width="39" height="40" fill="none"><path stroke="#8984A3" stroke-linecap="round" stroke-linejoin="round" stroke-width="1.5" d="M19.012 24.875a4.387 4.387 0 1 0 0-8.775 4.387 4.387 0 0 0 0 8.775Z"/><path stroke="#8984A3" stroke-linecap="round" stroke-linejoin="round" stroke-width="1.5" d="m32.81 14.389-1.666-2.907a2.477 2.477 0 0 0-3.413-.914l-.825.473c-1.666.964-3.736-.245-3.736-2.188V7.89c0-1.388-1.117-2.515-2.492-2.515h-3.332c-1.374 0-2.49 1.127-2.49 2.515v.963c0 1.943-2.07 3.152-3.737 2.188l-.825-.473c-1.197-.703-2.717-.278-3.413.914l-1.666 2.907a2.541 2.541 0 0 0 .906 3.445l.825.474c1.666.963 1.666 3.396 0 4.36l-.825.473a2.527 2.527 0 0 0-.906 3.445l1.666 2.907a2.477 2.477 0 0 0 3.413.914l.825-.473c1.666-.964 3.737.245 3.737 2.188v.963c0 1.388 1.116 2.515 2.49 2.515h3.332c1.375 0 2.491-1.127 2.491-2.515v-.963c0-1.943 2.07-3.152 3.737-2.188l.825.473c1.197.703 2.717.278 3.413-.914l1.666-2.907a2.541 2.541 0 0 0-.906-3.445l-.825-.474c-1.666-.963-1.666-3.396 0-4.36l.825-.473a2.53 2.53 0 0 0 .906-3.445Z" clip-rule="evenodd"/></svg>